<svg width="283" height="300" viewBox="0 0 283 300" fill="none" xmlns="http://www.w3.org/2000/svg">
<path d="M100 60V72.4492C72.6106 87.2324 54 116.193 54 149.5C54 182.807 72.6108 211.767 100 226.55V240L0 300V0L100 60ZM283 300L183 240V226.55C210.389 211.767 229 182.807 229 149.5C229 116.193 210.389 87.2324 183 72.4492V60L283 0V300ZM100 100H91V200H100V214.962C78.3607 201.215 64 177.035 64 149.5C64 121.965 78.3604 97.7841 100 84.0371V100ZM183 84.0371C204.64 97.7841 219 121.965 219 149.5C219 177.035 204.639 201.215 183 214.962V200H191V100H183V84.0371ZM177 183H105V116H177V183Z" fill="white"/>
</svg>
